<svg width="100" height="100" viewBox="0 0 100 100" fill="none" xmlns="http://www.w3.org/2000/svg">
<mask id="mask0" mask-type="alpha" maskUnits="userSpaceOnUse" x="0" y="0" width="100" height="100">
<circle cx="50" cy="50" r="50" fill="#C4C4C4"/>
</mask>
<g mask="url(#mask0)">
<g opacity="0.7">
<path d="M107 -7H-6V106H107V-7Z" fill="#A6A6C8"/>
<path d="M79.2363 82.9278C75.3678 75.6054 50.4992 71.0106 50.4992 71.0106C50.4992 71.0106 25.6314 75.6054 21.7629 82.9278C18.9044 93.0893 16.5127 106 16.5127 106H50.4992H84.4865C84.4873 106 82.8725 92.1564 79.2363 82.9278Z" fill="#F1C9A5"/>
<path d="M50.4991 71.0106C50.4991 71.0106 75.3677 75.6054 79.2362 82.9278C82.8717 92.1564 84.4864 106 84.4864 106H50.4991V71.0106Z" fill="#E4B692"/>
<path d="M57.2698 56.1241H43.7301V78.7842H57.2698V56.1241Z" fill="#F1C9A5"/>
<path d="M57.2698 56.1241H50.4991V78.7842H57.2698V56.1241Z" fill="#E4B692"/>
<path opacity="0.1" d="M43.7301 66.6246C44.9482 70.1198 49.8617 72.1242 53.4707 72.1242C54.7768 72.1242 56.0471 71.9052 57.2698 71.5046V56.1241H43.7301V66.6246Z" fill="#DDAC8C"/>
<path d="M67.9075 41.8262C67.9075 27.6723 60.1136 19.6244 50.4993 19.6244C40.8857 19.6244 33.0918 27.6723 33.0918 41.8262C33.0918 60.8632 40.8857 67.4546 50.4993 67.4546C60.1144 67.4546 67.9075 60.0698 67.9075 41.8262Z" fill="#F1C9A5"/>
<path d="M67.9075 41.8262C67.9075 27.6723 60.1136 19.6244 50.4993 19.6244C40.8857 19.6244 33.0918 27.6723 33.0918 41.8262C33.0918 60.8632 40.8857 67.4546 50.4993 67.4546C60.1144 67.4546 67.9075 60.0698 67.9075 41.8262Z" fill="#F1C9A5"/>
<path d="M29.1944 45.238C28.6613 41.3749 30.7888 37.9764 33.9419 37.6475C37.1005 37.3186 40.0891 40.1873 40.6183 44.0503C41.1506 47.9102 39.0184 51.3096 35.8645 51.64C32.7091 51.9666 29.7235 49.101 29.1944 45.238Z" fill="#F1C9A5"/>
<path d="M67.9074 41.8262C67.9074 27.6723 60.1135 19.6244 50.4991 19.6244V67.4546C60.1143 67.4546 67.9074 60.0698 67.9074 41.8262Z" fill="#E4B692"/>
<path d="M79.2363 82.9278C76.7573 78.2356 65.6622 74.6663 58.0063 72.7056C57.7086 76.5943 54.4643 79.6593 50.4992 79.6593C46.5341 79.6593 43.2906 76.5943 42.9929 72.7056C35.3369 74.6663 24.2419 78.2356 21.7629 82.9278C18.9044 93.0892 16.5127 106 16.5127 106H50.4992H84.4865C84.4873 106 82.8725 92.1564 79.2363 82.9278Z" fill="#102F41"/>
<path d="M36.0366 58.6725C39.8233 65.1034 43.5944 66.0978 43.5944 66.0978L44.7369 69.8034H43.0964H41.8105L41.0975 68.2051H39.5272L38.9559 66.2435L37.4004 66.8974L37.0303 64.7176H35.6018L35.1022 62.9011L34.0315 63.41L32.9607 61.7383L31.4621 60.9395L32.1759 58.4691H30.3921L30.4638 55.853L29.107 56.2894L28.6075 53.9647L26.3233 53.0927L28.3215 51.0579L27.3224 50.6947L28.3924 48.8065L27.6076 48.4433L27.4642 46.1903L25.1808 45.7547L26.4659 43.7199L24.8948 41.2495L26.7511 40.2317L25.7521 37.7621L26.3225 35.4366L24.1818 33.6925L27.179 33.4026V31.2229L28.0362 29.3338L27.179 27.7355L28.7501 26.4278L27.179 25.1193L28.8919 23.3752V22.3582L30.463 21.0505L29.7492 19.0158L32.603 19.5971L32.7464 16.1097L34.8879 16.836L35.601 15.3834L38.0278 15.6741C38.0278 15.6741 37.4573 14.5114 38.4556 14.5114C39.4547 14.5114 41.8822 15.5291 41.8822 15.5291L43.1665 13.785L46.0212 15.8198L47.021 13.785L48.8765 15.9648L50.6175 13.785C50.6175 13.785 50.6175 25.9922 50.6175 33.5483C48.3614 33.3551 47.1628 33.3551 42.215 31.4169C40.5029 32.5797 34.983 40.524 34.983 41.2986C34.983 42.0732 34.0307 50.0183 34.0307 50.0183L33.0378 45.2801C33.0378 45.277 34.0276 55.2599 36.0366 58.6725Z" fill="#231F20"/>
<path d="M64.6281 58.6725C60.9895 65.1034 57.3665 66.0978 57.3665 66.0978L56.2692 69.8034H57.845H59.0802L59.766 68.2051H61.2755L61.8233 66.2435L63.3188 66.8974L63.675 64.7176H65.0473L65.5266 62.9011L66.5553 63.41L67.584 61.7383L69.0242 60.9395L68.3384 58.4691H70.0521L69.9835 55.853L71.2873 56.2894L71.7666 53.9647L73.9611 53.0927L72.0401 51.0579L73.001 50.6947L71.9723 48.8065L72.7267 48.4433L72.8646 46.1903L75.0576 45.7547L73.8232 43.7199L75.3327 41.2495L73.5496 40.2317L74.5089 37.7621L73.9611 35.4366L76.0185 33.6925L73.1389 33.4026V31.2229L72.3152 29.3338L73.1389 27.7355L71.6294 26.4278L73.1389 25.1193L71.493 23.3752V22.3582L69.9843 21.0505L70.6708 19.0158L67.9277 19.5971L67.7897 16.1097L65.7324 16.836L65.0466 15.3834L62.7149 15.6741C62.7149 15.6741 63.2635 14.5114 62.3042 14.5114C61.3441 14.5114 59.0116 15.5291 59.0116 15.5291L57.7772 13.785L55.034 15.8198L54.0739 13.785L52.2908 15.9648L50.6184 13.785C50.6184 13.785 50.6184 25.9922 50.6184 33.5483C52.7849 33.3551 53.9375 33.3551 58.6913 31.4169C60.3372 32.5797 65.6404 40.524 65.6404 41.2986C65.6404 42.0732 66.5553 50.0183 66.5553 50.0183L67.51 45.2801C67.51 45.277 66.5592 55.2599 64.6281 58.6725Z" fill="#231F20"/>
<path d="M29.1944 45.238C28.6613 41.3749 30.7888 37.9764 33.9419 37.6475C37.1005 37.3186 40.0891 40.1873 40.6183 44.0503C41.1506 47.9102 39.0184 51.3096 35.8645 51.64C32.7091 51.9666 29.7235 49.101 29.1944 45.238Z" fill="#F1C9A5"/>
<path d="M65.2585 51.64C62.1023 51.3096 59.9725 47.9095 60.5063 44.0503C61.0339 40.1873 64.0233 37.3186 67.1795 37.6475C70.3334 37.9764 72.4609 41.3749 71.9286 45.238C71.3995 49.101 68.414 51.9666 65.2585 51.64Z" fill="#E4B692"/>
</g>
</g>
</svg>
