<svg width="17" height="14" viewBox="0 0 17 14" fill="none" xmlns="http://www.w3.org/2000/svg">
<path fill-rule="evenodd" clip-rule="evenodd" d="M2.20989 0C1.00072 0 1.41805e-06 1.00074 1.41805e-06 2.20989V12.4997C-0.000245997 12.6257 0.0318864 12.7497 0.093316 12.8597C0.154746 12.9697 0.243411 13.062 0.350808 13.1279C0.458204 13.1938 0.580727 13.231 0.706624 13.2359C0.83252 13.2408 0.957566 13.2133 1.06977 13.1559L3.85402 11.766H13.9701C15.1793 11.766 16.1786 10.7667 16.1786 9.55752V2.20989C16.1786 1.00074 15.1793 0 13.9701 0H2.20989ZM11.1098 3.6774C11.2082 3.67977 11.3053 3.70191 11.395 3.7425C11.4848 3.78308 11.5655 3.8413 11.6323 3.91368C11.6991 3.98607 11.7507 4.07114 11.7841 4.16386C11.8174 4.25657 11.8317 4.35504 11.8262 4.4534C11.8207 4.55177 11.7955 4.64803 11.7521 4.73646C11.7087 4.8249 11.648 4.90371 11.5735 4.96821C11.499 5.03272 11.4124 5.0816 11.3186 5.11195C11.2249 5.14231 11.126 5.15352 11.0279 5.14492H5.15066C4.96498 5.14101 4.78766 5.06697 4.65432 4.93768C4.52099 4.8084 4.44152 4.63344 4.43188 4.44797C4.42224 4.2625 4.48315 4.08025 4.60237 3.93784C4.72159 3.79543 4.89028 3.70341 5.07456 3.68028C5.09991 3.67896 5.12531 3.67896 5.15066 3.68028H11.0279C11.0551 3.6778 11.0824 3.67684 11.1098 3.6774ZM5.15066 6.61674H8.09287C8.19081 6.61454 8.2882 6.63193 8.37932 6.66789C8.47044 6.70385 8.55346 6.75765 8.6235 6.82614C8.69354 6.89463 8.7492 6.97642 8.78719 7.06671C8.82519 7.157 8.84476 7.25397 8.84476 7.35194C8.84476 7.4499 8.82519 7.54687 8.78719 7.63716C8.7492 7.72745 8.69354 7.80924 8.6235 7.87773C8.55346 7.94622 8.47044 8.00002 8.37932 8.03598C8.2882 8.07194 8.19081 8.08933 8.09287 8.08713H5.15066C5.05273 8.08933 4.95534 8.07194 4.86422 8.03598C4.7731 8.00002 4.69008 7.94622 4.62004 7.87773C4.54999 7.80924 4.49434 7.72745 4.45635 7.63716C4.41835 7.54687 4.39878 7.4499 4.39878 7.35194C4.39878 7.25397 4.41835 7.157 4.45635 7.06671C4.49434 6.97642 4.54999 6.89463 4.62004 6.82614C4.69008 6.75765 4.7731 6.70385 4.86422 6.66789C4.95534 6.63193 5.05273 6.61454 5.15066 6.61674Z" fill="white"/>
</svg>
